/* XPM */
static char *bishopw[] = {
/* columns rows colors chars-per-pixel */
"45 45 86 1 ",
"  c black",
". c #010101",
"X c #020202",
"o c gray1",
"O c #040404",
"+ c #090909",
"@ c gray4",
"# c #0C0C0C",
"$ c gray5",
"% c #0E0E0E",
"& c gray6",
"* c #101010",
"= c #111111",
"- c gray7",
"; c gray8",
": c #161616",
"> c gray9",
", c #222222",
"< c gray16",
"1 c gray17",
"2 c #2C2C2C",
"3 c #2F2F2F",
"4 c gray19",
"5 c #313131",
"6 c #343434",
"7 c #3C3C3C",
"8 c gray24",
"9 c #3E3E3E",
"0 c #4B4B4B",
"q c gray30",
"w c #505050",
"e c gray32",
"r c #535353",
"t c #555555",
"y c gray34",
"u c #585858",
"i c gray37",
"p c #606060",
"a c #626262",
"s c #646464",
"d c #6A6A6A",
"f c gray42",
"g c #6F6F6F",
"h c #767676",
"j c #777777",
"k c gray47",
"l c #7C7C7C",
"z c gray50",
"x c #818181",
"c c #848484",
"v c #868686",
"b c #909090",
"n c #9D9D9D",
"m c gray62",
"M c #9F9F9F",
"N c gray65",
"B c #A9A9A9",
"V c #AAAAAA",
"C c #B7B7B7",
"Z c gray72",
"A c #B9B9B9",
"S c #BBBBBB",
"D c gray75",
"F c #C0C0C0",
"G c #C1C1C1",
"H c gray76",
"J c LightGray",
"K c #D7D7D7",
"L c gray85",
"P c #DDDDDD",
"I c gray87",
"U c #DFDFDF",
"Y c #E2E2E2",
"T c #E7E7E7",
"R c #ECECEC",
"E c gray93",
"W c #EFEFEF",
"Q c #F4F4F4",
"! c gray96",
"~ c #F6F6F6",
"^ c gray97",
"/ c #F9F9F9",
"( c #FDFDFD",
") c #FEFEFE",
"_ c white",
"` c None",
/* pixels */
"`````````````````````````````````````````````",
"`````````````````````````````````````````````",
"`````````````````````````````````````````````",
"`````````````````````````````````````````````",
"`````````````````````````````````````````````",
"``````````````````````o``````````````````````",
"````````````````````Oo;oO````````````````````",
"```````````````````ooH_Ho````````````````````",
"```````````````````o4___4o```````````````````",
"```````````````````o@Y_YOo```````````````````",
"````````````````````o*0&o````````````````````",
"````````````````````ooooo````````````````````",
"``````````````````oo3B!B3oo``````````````````",
"`````````````````o@n_____n@o`````````````````",
"````````````````o3I_______I1o````````````````",
"```````````````o1R___RgR___R1o```````````````",
"``````````````o&I____HoD____I@o``````````````",
"``````````````ob___!LNoNLQ___bo``````````````",
"`````````````o&!___tooooot___!&o`````````````",
"`````````````ou____LBlolBL____to`````````````",
"`````````````ox______DoD______xo`````````````",
"`````````````oc______Y7Y______xo`````````````",
"`````````````oi_______________io`````````````",
"`````````````o&Q_____________Q&o`````````````",
"``````````````op_____________po``````````````",
"``````````````ooqCILIIILILIC0o```````````````",
"````````````````ooooooooooooo````````````````",
"```````````````ooqBBBNBBBBNqoo```````````````",
"```````````````od___________do```````````````",
"``````````````oOJLIIILIIIIILJ@o``````````````",
"``````````````ooooooooooooooooo``````````````",
"``````````````o0BBBNBBBBBNBBB0o``````````````",
"``````````````o;N(_________(N*O``````````````",
"```````````````Oo&qlnBABnlq&oo```````````````",
"`````````````````oooooooooOo`````````````````",
"````````````ooooooooo&t&ooooooooo````````````",
"```````ooooo@&&;>6thA!_!Chq6,;@&&oooo````````",
"``````ootAY(_______(KndnK!_______(YCtoo``````",
"`````ooth7&ooooooooooooooooooooooo*7htoo`````",
"``````oooooo`ooooo`````````ooooo`oooooo``````",
"`````````````````````````````````````````````",
"`````````````````````````````````````````````",
"`````````````````````````````````````````````",
"`````````````````````````````````````````````",
"`````````````````````````````````````````````"
};
