/* XPM */
static char *bishopb[] = {
/* columns rows colors chars-per-pixel */
"45 45 23 1 ",
"  c black",
". c #020202",
"X c gray4",
"o c #101010",
"O c #111111",
"+ c #1B1B1B",
"@ c #1D1D1D",
"# c #222222",
"$ c gray15",
"% c #282828",
"& c gray17",
"* c #3F3F3F",
"= c gray25",
"- c #4E4E4E",
"; c #555555",
": c gray35",
"> c #808080",
", c #909090",
"< c #AAAAAA",
"1 c #B7B7B7",
"2 c #C3C3C3",
"3 c white",
"4 c None",
/* pixels */
"444444444444444444444444444444444444444444444",
"444444444444444444444444444444444444444444444",
"444444444444444444444444444444444444444444444",
"444444444444444444444444444444444444444444444",
"444444444444444444444444444444444444444444444",
"4444444444444444444444 4444444444444444444444",
"44444444444444444444     44444444444444444444",
"4444444444444444444      44444444444444444444",
"4444444444444444444       4444444444444444444",
"4444444444444444444       4444444444444444444",
"44444444444444444444     44444444444444444444",
"44444444444444444444     44444444444444444444",
"444444444444444444         444444444444444444",
"44444444444444444           44444444444444444",
"4444444444444444             4444444444444444",
"444444444444444      o,o      444444444444444",
"44444444444444       *3*       44444444444444",
"44444444444444     X#:3:#X     44444444444444",
"4444444444444      <33333<      4444444444444",
"4444444444444      $;>3>;$      4444444444444",
"4444444444444        =3=        4444444444444",
"4444444444444        @2@        4444444444444",
"4444444444444                   4444444444444",
"4444444444444                   4444444444444",
"44444444444444                 44444444444444",
"44444444444444   +#########+  444444444444444",
"4444444444444444&33333333333&4444444444444444",
"444444444444444  -;;;;;;;;;-  444444444444444",
"444444444444444               444444444444444",
"44444444444444o###############o44444444444444",
"444444444444441333333333333333144444444444444",
"44444444444444&;;;;;;;;;;;;;;;&44444444444444",
"44444444444444                 44444444444444",
"444444444444444               444444444444444",
"44444444444444444           44444444444444444",
"444444444444                     444444444444",
"4444444                              44444444",
"444444                                 444444",
"44444                                   44444",
"444444      4     444444444     4      444444",
"444444444444444444444444444444444444444444444",
"444444444444444444444444444444444444444444444",
"444444444444444444444444444444444444444444444",
"444444444444444444444444444444444444444444444",
"444444444444444444444444444444444444444444444"
};
