/* XPM */
static char *kingb[] = {
/* columns rows colors chars-per-pixel */
"45 45 129 2 ",
"   c black",
".  c #020202",
"X  c gray1",
"o  c gray2",
"O  c #070707",
"+  c gray3",
"@  c #090909",
"#  c #0B0B0B",
"$  c #0C0C0C",
"%  c gray6",
"&  c #101010",
"*  c #111111",
"=  c gray7",
"-  c #131313",
";  c gray8",
":  c #151515",
">  c gray9",
",  c #191919",
"<  c #1B1B1B",
"1  c #252525",
"2  c #282828",
"3  c gray16",
"4  c gray17",
"5  c #2F2F2F",
"6  c gray19",
"7  c #313131",
"8  c #323232",
"9  c #343434",
"0  c #353535",
"q  c #373737",
"w  c #393939",
"e  c gray23",
"r  c gray25",
"t  c #414141",
"y  c gray26",
"u  c #434343",
"i  c #444444",
"p  c #464646",
"a  c #484848",
"s  c gray30",
"d  c gray31",
"f  c #505050",
"g  c #515151",
"h  c gray33",
"j  c #555555",
"k  c gray34",
"l  c #585858",
"z  c gray35",
"x  c #5B5B5B",
"c  c #606060",
"v  c gray40",
"b  c #6D6D6D",
"n  c gray43",
"m  c gray45",
"M  c #767676",
"N  c #777777",
"B  c gray47",
"V  c gray48",
"C  c #7C7C7C",
"Z  c gray49",
"A  c #808080",
"S  c #838383",
"D  c #868686",
"F  c gray53",
"G  c #888888",
"H  c gray55",
"J  c #8D8D8D",
"K  c #8E8E8E",
"L  c gray56",
"P  c #909090",
"I  c gray57",
"U  c #929292",
"Y  c gray60",
"T  c gray61",
"R  c gray62",
"E  c #A2A2A2",
"W  c gray64",
"Q  c #A4A4A4",
"!  c #A5A5A5",
"~  c gray65",
"^  c gray66",
"/  c #A9A9A9",
"(  c gray67",
")  c #AFAFAF",
"_  c gray69",
"`  c #B1B1B1",
"'  c #B2B2B2",
"]  c #B6B6B6",
"[  c #B7B7B7",
"{  c #BBBBBB",
"}  c #C3C3C3",
"|  c gray77",
" . c #C5C5C5",
".. c #C6C6C6",
"X. c #C8C8C8",
"o. c #CACACA",
"O. c gray80",
"+. c #CDCDCD",
"@. c #D0D0D0",
"#. c gray82",
"$. c LightGray",
"%. c gray83",
"&. c #D5D5D5",
"*. c gray84",
"=. c gray86",
"-. c gainsboro",
";. c #DDDDDD",
":. c gray87",
">. c #DFDFDF",
",. c gray89",
"<. c #E4E4E4",
"1. c #E7E7E7",
"2. c #EAEAEA",
"3. c gray92",
"4. c #ECECEC",
"5. c gray94",
"6. c gray95",
"7. c #F3F3F3",
"8. c gray96",
"9. c gray97",
"0. c #F8F8F8",
"q. c #F9F9F9",
"w. c gray98",
"e. c #FBFBFB",
"r. c gray99",
"t. c #FDFDFD",
"y. c #FEFEFE",
"u. c white",
"i. c None",
/* pixels */
"i.i.i.i.i.i.i.i.i.i.i.i.i.i.i.i.i.i.i.i.i.i.i.i.i.i.i.i.i.i.i.i.i.i.i.i.i.i.i.i.i.i.i.i.i.",
"i.i.i.i.i.i.i.i.i.i.i.i.i.i.i.i.i.i.i.i.i.i.i.i.i.i.i.i.i.i.i.i.i.i.i.i.i.i.i.i.i.i.i.i.i.",
"i.i.i.i.i.i.i.i.i.i.i.i.i.i.i.i.i.i.i.i.i.i.i.i.i.i.i.i.i.i.i.i.i.i.i.i.i.i.i.i.i.i.i.i.i.",
"i.i.i.i.i.i.i.i.i.i.i.i.i.i.i.i.i.i.i.i.i.i.i.i.i.i.i.i.i.i.i.i.i.i.i.i.i.i.i.i.i.i.i.i.i.",
"i.i.i.i.i.i.i.i.i.i.i.i.i.i.i.i.i.i.i.i.i.i.i.i.i.i.i.i.i.i.i.i.i.i.i.i.i.i.i.i.i.i.i.i.i.",
"i.i.i.i.i.i.i.i.i.i.i.i.i.i.i.i.i.i.i.i.i.i.  i.i.i.i.i.i.i.i.i.i.i.i.i.i.i.i.i.i.i.i.i.i.",
"i.i.i.i.i.i.i.i.i.i.i.i.i.i.i.i.i.i.i.i.i.i.  i.i.i.i.i.i.i.i.i.i.i.i.i.i.i.i.i.i.i.i.i.i.",
"i.i.i.i.i.i.i.i.i.i.i.i.i.i.i.i.i.i.i.i.          i.i.i.i.i.i.i.i.i.i.i.i.i.i.i.i.i.i.i.i.",
"i.i.i.i.i.i.i.i.i.i.i.i.i.i.i.i.i.i.i.i.          i.i.i.i.i.i.i.i.i.i.i.i.i.i.i.i.i.i.i.i.",
"i.i.i.i.i.i.i.i.i.i.i.i.i.i.i.i.i.i.i.i.i.i.  i.i.i.i.i.i.i.i.i.i.i.i.i.i.i.i.i.i.i.i.i.i.",
"i.i.i.i.i.i.i.i.i.i.i.i.i.i.i.i.i.i.i.i.i.i.  i.i.i.i.i.i.i.i.i.i.i.i.i.i.i.i.i.i.i.i.i.i.",
"i.i.i.i.i.i.i.i.i.i.i.i.i.i.i.i.i.i.i.i.i.      i.i.i.i.i.i.i.i.i.i.i.i.i.i.i.i.i.i.i.i.i.",
"i.i.i.i.i.i.i.i.i.i.i.i.i.i.i.i.i.i.i.i.          i.i.i.i.i.i.i.i.i.i.i.i.i.i.i.i.i.i.i.i.",
"i.i.i.i.i.i.i.i.i.i.i.i.i.i.i.i.i.i.i.              i.i.i.i.i.i.i.i.i.i.i.i.i.i.i.i.i.i.i.",
"i.i.i.i.i.i.i.i.i.i.i.i.i.i.i.i.i.i.i.              i.i.i.i.i.i.i.i.i.i.i.i.i.i.i.i.i.i.i.",
"i.i.i.i.i.i.i.i.i.i.i.        i.i.i.i.              i.i.i.i.        i.i.i.i.i.i.i.i.i.i.i.",
"i.i.i.i.i.i.i.i.  7 A ' { E m 1                           1 m E { ' A 5   i.i.i.i.i.i.i.i.",
"i.i.i.i.i.i.i.= ^ u.e.#.+.:.u.u.) 9                   9 ) u.u.:.+.#.u.u.^ ; i.i.i.i.i.i.i.",
"i.i.i.i.i.i.; *.e.M =       < C 3.u.K o           o K u.3.C <       = C e.#.; i.i.i.i.i.i.",
"i.i.i.i.i.i.E e.r               # K u.} ;       ; | u.K #               r e.Q i.i.i.i.i.i.",
"i.i.i.i.i.= e.K                     j 8.| #   # | 8.j                     K 8.= i.i.i.i.i.",
"i.i.i.i.i.e u.s                       g u.Q   ^ u.g                       g u.e i.i.i.i.i.",
"i.i.i.i.i.9 u.j                         M u.Q u.M                         j u.7 i.i.i.i.i.",
"i.i.i.i.i.$ 5.T                           +.u.+.                          T 5.# i.i.i.i.i.",
"i.i.i.i.i.i.K e.2                         z u.z                         2 u.K i.i.i.i.i.i.",
"i.i.i.i.i.i.; 4.*.=                       r u.r                       = *.3.; i.i.i.i.i.i.",
"i.i.i.i.i.i.i.r 8.o.<                     e u.e                     < o.8.r i.i.i.i.i.i.i.",
"i.i.i.i.i.i.i.i.s 5.,.r       # p A ^ #.<.5.u.4.<.#.^ A p #       p ,.5.s i.i.i.i.i.i.i.i.",
"i.i.i.i.i.i.i.i.i.7 *.u.E z ' 8.u.e.=.' Y K F K Y ' =.e.u.8.) j E u.*.7 i.i.i.i.i.i.i.i.i.",
"i.i.i.i.i.i.i.i.i.i.$ U u.u.<.U a #                   # a U <.u.u.K # i.i.i.i.i.i.i.i.i.i.",
"i.i.i.i.i.i.i.i.i.i.i.i.] b o     o 2 g v m M m v g 2 o     # b ] i.i.i.i.i.i.i.i.i.i.i.i.",
"i.i.i.i.i.i.i.i.i.i.i.i.    7 C | e.u.u.u.u.u.u.u.u.u.e.| C 5     i.i.i.i.i.i.i.i.i.i.i.i.",
"i.i.i.i.i.i.i.i.i.i.i.i.g } u.u.o.F z 7 < =   = < 7 z G o.u.u.} g i.i.i.i.i.i.i.i.i.i.i.i.",
"i.i.i.i.i.i.i.i.i.i.i.i.u.:.b =                           = b =.u.i.i.i.i.i.i.i.i.i.i.i.i.",
"i.i.i.i.i.i.i.i.i.i.i.i.5     # p C ^ #.<.4.u.4.,.#.^ A p #     2 i.i.i.i.i.i.i.i.i.i.i.i.",
"i.i.i.i.i.i.i.i.i.i.i.i.  r ) 8.u.u.=.' Y K G K Y ' =.u.u.8.' r   i.i.i.i.i.i.i.i.i.i.i.i.",
"i.i.i.i.i.i.i.i.i.i.i.i.#.u.<.U a #                   # p U 3.u.#.i.i.i.i.i.i.i.i.i.i.i.i.",
"i.i.i.i.i.i.i.i.i.i.i.i.] c #                               o c { i.i.i.i.i.i.i.i.i.i.i.i.",
"i.i.i.i.i.i.i.i.i.i.i.i.i.i.                                  i.i.i.i.i.i.i.i.i.i.i.i.i.i.",
"i.i.i.i.i.i.i.i.i.i.i.i.i.i.i.i.                          i.i.i.i.i.i.i.i.i.i.i.i.i.i.i.i.",
"i.i.i.i.i.i.i.i.i.i.i.i.i.i.i.i.i.i.i.i.i.i.i.i.i.i.i.i.i.i.i.i.i.i.i.i.i.i.i.i.i.i.i.i.i.",
"i.i.i.i.i.i.i.i.i.i.i.i.i.i.i.i.i.i.i.i.i.i.i.i.i.i.i.i.i.i.i.i.i.i.i.i.i.i.i.i.i.i.i.i.i.",
"i.i.i.i.i.i.i.i.i.i.i.i.i.i.i.i.i.i.i.i.i.i.i.i.i.i.i.i.i.i.i.i.i.i.i.i.i.i.i.i.i.i.i.i.i.",
"i.i.i.i.i.i.i.i.i.i.i.i.i.i.i.i.i.i.i.i.i.i.i.i.i.i.i.i.i.i.i.i.i.i.i.i.i.i.i.i.i.i.i.i.i.",
"i.i.i.i.i.i.i.i.i.i.i.i.i.i.i.i.i.i.i.i.i.i.i.i.i.i.i.i.i.i.i.i.i.i.i.i.i.i.i.i.i.i.i.i.i."
};
