/* XPM */
static char *kingw[] = {
/* columns rows colors chars-per-pixel */
"45 45 109 2 ",
"   c black",
".  c #010101",
"X  c #020202",
"o  c gray1",
"O  c #040404",
"+  c gray2",
"@  c #070707",
"#  c gray4",
"$  c gray5",
"%  c #0E0E0E",
"&  c gray6",
"*  c gray7",
"=  c #131313",
"-  c #161616",
";  c gray9",
":  c #181818",
">  c #191919",
",  c gray10",
"<  c #1B1B1B",
"1  c gray13",
"2  c #222222",
"3  c gray14",
"4  c #2D2D2D",
"5  c gray18",
"6  c #2F2F2F",
"7  c gray19",
"8  c #313131",
"9  c #323232",
"0  c #353535",
"q  c #373737",
"w  c #393939",
"e  c #414141",
"r  c gray26",
"t  c #444444",
"y  c gray27",
"u  c gray30",
"i  c #4E4E4E",
"p  c gray31",
"a  c #505050",
"s  c #565656",
"d  c gray38",
"f  c #626262",
"g  c gray40",
"h  c #6D6D6D",
"j  c gray43",
"k  c #6F6F6F",
"l  c gray44",
"z  c #717171",
"x  c gray45",
"c  c gray46",
"v  c #777777",
"b  c gray47",
"n  c #797979",
"m  c gray50",
"M  c #838383",
"N  c gray53",
"B  c #888888",
"V  c gray55",
"C  c #8D8D8D",
"Z  c gray57",
"A  c #929292",
"S  c #939393",
"D  c gray60",
"F  c #9F9F9F",
"G  c #A4A4A4",
"H  c #A5A5A5",
"J  c #AAAAAA",
"K  c #AFAFAF",
"L  c #B2B2B2",
"P  c gray70",
"I  c #B7B7B7",
"U  c #B9B9B9",
"Y  c gray73",
"T  c #BBBBBB",
"R  c #BCBCBC",
"E  c gray74",
"W  c gray75",
"Q  c #C0C0C0",
"!  c #CBCBCB",
"~  c gray80",
"^  c #CDCDCD",
"/  c #CECECE",
"(  c gray81",
")  c #D0D0D0",
"_  c LightGray",
"`  c gray84",
"'  c #D7D7D7",
"]  c gray86",
"[  c #DDDDDD",
"{  c #E2E2E2",
"}  c #E4E4E4",
"|  c #E6E6E6",
" . c #EAEAEA",
".. c gray92",
"X. c #ECECEC",
"o. c gray93",
"O. c #EEEEEE",
"+. c gray94",
"@. c gray95",
"#. c #F4F4F4",
"$. c gray96",
"%. c #F6F6F6",
"&. c gray97",
"*. c #F8F8F8",
"=. c #F9F9F9",
"-. c gray98",
";. c #FBFBFB",
":. c white",
">. c None",
/* pixels */
">.>.>.>.>.>.>.>.>.>.>.>.>.>.>.>.>.>.>.>.>.>.>.>.>.>.>.>.>.>.>.>.>.>.>.>.>.>.>.>.>.>.>.>.>.",
">.>.>.>.>.>.>.>.>.>.>.>.>.>.>.>.>.>.>.>.>.>.>.>.>.>.>.>.>.>.>.>.>.>.>.>.>.>.>.>.>.>.>.>.>.",
">.>.>.>.>.>.>.>.>.>.>.>.>.>.>.>.>.>.>.>.>.>.>.>.>.>.>.>.>.>.>.>.>.>.>.>.>.>.>.>.>.>.>.>.>.",
">.>.>.>.>.>.>.>.>.>.>.>.>.>.>.>.>.>.>.>.>.>.>.>.>.>.>.>.>.>.>.>.>.>.>.>.>.>.>.>.>.>.>.>.>.",
">.>.>.>.>.>.>.>.>.>.>.>.>.>.>.>.>.>.>.>.>.>.>.>.>.>.>.>.>.>.>.>.>.>.>.>.>.>.>.>.>.>.>.>.>.",
">.>.>.>.>.>.>.>.>.>.>.>.>.>.>.>.>.>.>.>.>.>.  >.>.>.>.>.>.>.>.>.>.>.>.>.>.>.>.>.>.>.>.>.>.",
">.>.>.>.>.>.>.>.>.>.>.>.>.>.>.>.>.>.>.>.>.>.  >.>.>.>.>.>.>.>.>.>.>.>.>.>.>.>.>.>.>.>.>.>.",
">.>.>.>.>.>.>.>.>.>.>.>.>.>.>.>.>.>.>.>.          >.>.>.>.>.>.>.>.>.>.>.>.>.>.>.>.>.>.>.>.",
">.>.>.>.>.>.>.>.>.>.>.>.>.>.>.>.>.>.>.>.          >.>.>.>.>.>.>.>.>.>.>.>.>.>.>.>.>.>.>.>.",
">.>.>.>.>.>.>.>.>.>.>.>.>.>.>.>.>.>.>.>.>.>.  >.>.>.>.>.>.>.>.>.>.>.>.>.>.>.>.>.>.>.>.>.>.",
">.>.>.>.>.>.>.>.>.>.>.>.>.>.>.>.>.>.>.>.>.>.  >.>.>.>.>.>.>.>.>.>.>.>.>.>.>.>.>.>.>.>.>.>.",
">.>.>.>.>.>.>.>.>.>.>.>.>.>.>.>.>.>.>.>.>.      >.>.>.>.>.>.>.>.>.>.>.>.>.>.>.>.>.>.>.>.>.",
">.>.>.>.>.>.>.>.>.>.>.>.>.>.>.>.>.>.>.>.  O q O O >.>.>.>.>.>.>.>.>.>.>.>.>.>.>.>.>.>.>.>.",
">.>.>.>.>.>.>.>.>.>.>.>.>.>.>.>.>.>.>.O * _ :._ * O >.>.>.>.>.>.>.>.>.>.>.>.>.>.>.>.>.>.>.",
">.>.>.>.>.>.>.>.>.>.>.>.>.>.>.>.>.>.>.  H :.:.:.H   >.>.>.>.>.>.>.>.>.>.>.>.>.>.>.>.>.>.>.",
">.>.>.>.>.>.>.>.>.>.>.  O     >.>.>.>.O $.:.:.:.$.  >.>.>.>.    O   >.>.>.>.>.>.>.>.>.>.>.",
">.>.>.>.>.>.>.>.      5 u r ;           ;.:.:.:.;.          > r u 5       >.>.>.>.>.>.>.>.",
">.>.>.>.>.>.>.O   z | :.:.:.:.( f O O   ] :.:.:.[   O   f ( :.:.:.:.| z   O >.>.>.>.>.>.>.",
">.>.>.>.>.>.  O I :.:.:.:.:.:.:.:.! 1   z :.:.:.h   1 ( :.:.:.:.:.:.:.:.L O   >.>.>.>.>.>.",
">.>.>.>.>.>.  A :.:.:.:.:.:.:.:.:.:.o.8   ( :._ O 8 o.:.:.:.:.:.:.:.:.:.:.A   >.>.>.>.>.>.",
">.>.>.>.>.  ; ;.:.:.:.:.:.:.:.:.:.:.:. .> 3 @.3 >  .:.:.:.:.:.:.:.:.:.:.:.:.;   >.>.>.>.>.",
">.>.>.>.>.O u :.:.:.:.:.:.:.:.:.:.:.:.:.U   8   U :.:.:.:.:.:.:.:.:.:.:.:.:.u O >.>.>.>.>.",
">.>.>.>.>.O u :.:.:.:.:.:.:.:.:.:.:.:.:.:.t   t :.:.:.:.:.:.:.:.:.:.:.:.:.:.u O >.>.>.>.>.",
">.>.>.>.>.  * ;.:.:.:.:.:.:.:.:.:.:.:.:.:.J   J :.:.:.:.:.:.:.:.:.:.:.:.:.$.*   >.>.>.>.>.",
">.>.>.>.>.>.  S :.:.:.:.:.:.:.:.:.:.:.:.:.Q   Q :.:.:.:.:.:.:.:.:.:.:.:.:.V   >.>.>.>.>.>.",
">.>.>.>.>.>.  & _ :.:.:.:.:.:.:.:.:.:.:.:.Q   R :.:.:.:.:.:.:.:.:.:.:.:._ & O >.>.>.>.>.>.",
">.>.>.>.>.>.>.O 1 { :.:.:.:.:.:.:.:.:.:.:.R   Q :.:.:.:.:.:.:.:.:.:.:.{ 1 O >.>.>.>.>.>.>.",
">.>.>.>.>.>.>.>.  ; ( :.:.:.:.$.U m s 8 > *   & > 8 s m U $.:.:.:.:.( > O >.>.>.>.>.>.>.>.",
">.>.>.>.>.>.>.>.>.O O B ;.U u #     3 u g z b z g u 3     # a R ;.N   O >.>.>.>.>.>.>.>.>.",
">.>.>.>.>.>.>.>.>.>.    O   > h I $.:.:.:.:.:.:.:.:.:.$.I h >   #     >.>.>.>.>.>.>.>.>.>.",
">.>.>.>.>.>.>.>.>.>.>.>.  b ;.:.:.;._ L D V B V D K _ :.:.:.;.c   >.>.>.>.>.>.>.>.>.>.>.>.",
">.>.>.>.>.>.>.>.>.>.>.>.  Q ( M w O                   O w M _ R   >.>.>.>.>.>.>.>.>.>.>.>.",
">.>.>.>.>.>.>.>.>.>.>.>.  5     q b H ( { @.:.@.{ ( G c q     5   >.>.>.>.>.>.>.>.>.>.>.>.",
">.>.>.>.>.>.>.>.>.>.>.>.  < A o.:.:.:.:.:.:.:.:.:.:.:.:.:.o.A >   >.>.>.>.>.>.>.>.>.>.>.>.",
">.>.>.>.>.>.>.>.>.>.>.>.  R :.$.U m s 5 > *   & < 8 s m U $.:.R   >.>.>.>.>.>.>.>.>.>.>.>.",
">.>.>.>.>.>.>.>.>.>.>.>.  V a #   O 3 u g z c c g u 3     # a V   >.>.>.>.>.>.>.>.>.>.>.>.",
">.>.>.>.>.>.>.>.>.>.>.>.    > z U $.:.:.:.:.:.:.:.:.:.$.I h >     >.>.>.>.>.>.>.>.>.>.>.>.",
">.>.>.>.>.>.>.>.>.>.>.>.    8 F o.:.:.:.:.:.:.:.:.:.:.:.o.F 8     >.>.>.>.>.>.>.>.>.>.>.>.",
">.>.>.>.>.>.>.>.>.>.>.>.>.>.    O r c H R _ [ _ Q H c r O   O >.>.>.>.>.>.>.>.>.>.>.>.>.>.",
">.>.>.>.>.>.>.>.>.>.>.>.>.>.>.>.                      O   >.>.>.>.>.>.>.>.>.>.>.>.>.>.>.>.",
">.>.>.>.>.>.>.>.>.>.>.>.>.>.>.>.>.>.>.>.>.>.>.>.>.>.>.>.>.>.>.>.>.>.>.>.>.>.>.>.>.>.>.>.>.",
">.>.>.>.>.>.>.>.>.>.>.>.>.>.>.>.>.>.>.>.>.>.>.>.>.>.>.>.>.>.>.>.>.>.>.>.>.>.>.>.>.>.>.>.>.",
">.>.>.>.>.>.>.>.>.>.>.>.>.>.>.>.>.>.>.>.>.>.>.>.>.>.>.>.>.>.>.>.>.>.>.>.>.>.>.>.>.>.>.>.>.",
">.>.>.>.>.>.>.>.>.>.>.>.>.>.>.>.>.>.>.>.>.>.>.>.>.>.>.>.>.>.>.>.>.>.>.>.>.>.>.>.>.>.>.>.>.",
">.>.>.>.>.>.>.>.>.>.>.>.>.>.>.>.>.>.>.>.>.>.>.>.>.>.>.>.>.>.>.>.>.>.>.>.>.>.>.>.>.>.>.>.>."
};
