/* XPM */
static char *knightw[] = {
/* columns rows colors chars-per-pixel */
"45 45 114 2 ",
"   c black",
".  c #010101",
"X  c #020202",
"o  c gray1",
"O  c #040404",
"+  c #060606",
"@  c #070707",
"#  c gray3",
"$  c #090909",
"%  c #0B0B0B",
"&  c #0C0C0C",
"*  c gray5",
"=  c gray6",
"-  c #111111",
";  c gray7",
":  c gray8",
">  c #161616",
",  c gray9",
"<  c #181818",
"1  c gray10",
"2  c #1D1D1D",
"3  c gray12",
"4  c #232323",
"5  c gray14",
"6  c #272727",
"7  c gray16",
"8  c #2C2C2C",
"9  c #2D2D2D",
"0  c gray18",
"q  c #2F2F2F",
"w  c gray19",
"e  c #313131",
"r  c #353535",
"t  c gray21",
"y  c #393939",
"u  c gray23",
"i  c gray26",
"p  c #434343",
"a  c #494949",
"s  c #4B4B4B",
"d  c gray30",
"f  c gray33",
"g  c gray34",
"h  c #585858",
"j  c gray35",
"k  c #5D5D5D",
"l  c #646464",
"z  c #656565",
"x  c #676767",
"c  c #6C6C6C",
"v  c gray43",
"b  c gray44",
"n  c #747474",
"m  c #797979",
"M  c gray48",
"N  c gray49",
"B  c #7E7E7E",
"V  c #838383",
"C  c gray53",
"Z  c #888888",
"A  c #898989",
"S  c gray55",
"D  c #8E8E8E",
"F  c #959595",
"G  c #9F9F9F",
"H  c #A2A2A2",
"J  c #A4A4A4",
"K  c #A5A5A5",
"L  c gray65",
"P  c gray66",
"I  c #AAAAAA",
"U  c gray67",
"Y  c #AEAEAE",
"T  c #B6B6B6",
"R  c gray72",
"E  c #B9B9B9",
"W  c gray73",
"Q  c #BBBBBB",
"!  c #BCBCBC",
"~  c gray74",
"^  c #C1C1C1",
"/  c gray76",
"(  c gray77",
")  c #C5C5C5",
"_  c #C8C8C8",
"`  c gray79",
"'  c #CACACA",
"]  c gray80",
"[  c gray82",
"{  c #D8D8D8",
"}  c gray85",
"|  c gray86",
" . c #E1E1E1",
".. c #E2E2E2",
"X. c #E6E6E6",
"o. c #E7E7E7",
"O. c gray91",
"+. c #E9E9E9",
"@. c #EAEAEA",
"#. c #EEEEEE",
"$. c #EFEFEF",
"%. c #F1F1F1",
"&. c #F4F4F4",
"*. c #F6F6F6",
"=. c gray97",
"-. c #F8F8F8",
";. c #F9F9F9",
":. c gray98",
">. c #FBFBFB",
",. c gray99",
"<. c #FDFDFD",
"1. c #FEFEFE",
"2. c white",
"3. c None",
/* pixels */
"3.3.3.3.3.3.3.3.3.3.3.3.3.3.3.3.3.3.3.3.3.3.3.3.3.3.3.3.3.3.3.3.3.3.3.3.3.3.3.3.3.3.3.3.3.",
"3.3.3.3.3.3.3.3.3.3.3.3.3.3.3.3.3.3.3.3.3.3.3.3.3.3.3.3.3.3.3.3.3.3.3.3.3.3.3.3.3.3.3.3.3.",
"3.3.3.3.3.3.3.3.3.3.3.3.3.3.3.3.3.3.3.3.3.3.3.3.3.3.3.3.3.3.3.3.3.3.3.3.3.3.3.3.3.3.3.3.3.",
"3.3.3.3.3.3.3.3.3.3.3.3.3.3.3.3.3.3.3.3.3.3.3.3.3.3.3.3.3.3.3.3.3.3.3.3.3.3.3.3.3.3.3.3.3.",
"3.3.3.3.3.3.3.3.3.3.3.3.3.3.3.3.3.3.3.3.3.3.3.3.3.3.3.3.3.3.3.3.3.3.3.3.3.3.3.3.3.3.3.3.3.",
"3.3.3.3.3.3.3.3.3.3.3.3.3.3.3.3.3.3.3.3.3.3.3.3.3.3.3.3.3.3.3.3.3.3.3.3.3.3.3.3.3.3.3.3.3.",
"3.3.3.3.3.3.3.3.3.3.3.3.3.3.3.3.3.3.3.3.3.3.3.3.3.3.3.3.3.3.3.3.3.3.3.3.3.3.3.3.3.3.3.3.3.",
"3.3.3.3.3.3.3.3.3.3.3.3.3.O O 3.3.3.3.3.    3.3.3.3.3.3.3.3.3.3.3.3.3.3.3.3.3.3.3.3.3.3.3.",
"3.3.3.3.3.3.3.3.3.3.3.3.3.  ;   3.3.3.  f $   3.3.3.3.3.3.3.3.3.3.3.3.3.3.3.3.3.3.3.3.3.3.",
"3.3.3.3.3.3.3.3.3.3.3.3.3.  L 1 O 3.O e ;.9   3.3.3.3.3.3.3.3.3.3.3.3.3.3.3.3.3.3.3.3.3.3.",
"3.3.3.3.3.3.3.3.3.3.3.3.3.O k W O     ) 2.j O         3.3.3.3.3.3.3.3.3.3.3.3.3.3.3.3.3.3.",
"3.3.3.3.3.3.3.3.3.3.3.3.3.  b 2.&.#.;.2.2.2.o.! A d O   O 3.3.3.3.3.3.3.3.3.3.3.3.3.3.3.3.",
"3.3.3.3.3.3.3.3.3.3.3.3.    ' 2.2.2.2.2.2.2.2.2.2.2.%.F 3     3.3.3.3.3.3.3.3.3.3.3.3.3.3.",
"3.3.3.3.3.3.3.3.3.3.3.3.  x @...2.2.2.2.2.2.2.2.2.2.2.2.;.N   O 3.3.3.3.3.3.3.3.3.3.3.3.3.",
"3.3.3.3.3.3.3.3.3.3.3.O t } ; & &.2.2.2.2.2.2.2.2.2.2.2.2.2.! &   3.3.3.3.3.3.3.3.3.3.3.3.",
"3.3.3.3.3.3.3.3.3.3.    ] a   ; ;.2.2.2.2.2.2.2.2.2.2.2.2.2.2.) $ O 3.3.3.3.3.3.3.3.3.3.3.",
"3.3.3.3.3.3.3.3.3.3.  l %.    V 2.2.2.2.2.2.2.2.2.2.2.2.2.2.2.2.L   3.3.3.3.3.3.3.3.3.3.3.",
"3.3.3.3.3.3.3.3.3.  & @.2.k l 2.2.2.2.2.2.2.2.^ ' 2.2.2.2.2.2.2.2.f   3.3.3.3.3.3.3.3.3.3.",
"3.3.3.3.3.3.3.3.3.  A 2.2.2.2.2.2.2.2.2.2.2.2.u d 2.2.2.2.2.2.2.2...O   3.3.3.3.3.3.3.3.3.",
"3.3.3.3.3.3.3.3.  4 &.2.2.2.2.2.2.2.2.2.2.2.%.& c 2.2.2.2.2.2.2.2.2.b   3.3.3.3.3.3.3.3.3.",
"3.3.3.3.3.3.3.3.  H 2.2.2.2.2.2.2.2.2.2.2.2.n   [ 2.2.2.2.2.2.2.2.2.{   3.3.3.3.3.3.3.3.3.",
"3.3.3.3.3.3.3.O 6 2.2.2.2.2.2.2.2.2.2.2.2.Y     2.2.2.2.2.2.2.2.2.2.2.y O 3.3.3.3.3.3.3.3.",
"3.3.3.3.3.3.3.  I 2.2.2.2.2.2.2.2.2.2.2.W $   O 2.2.2.2.2.2.2.2.2.2.2.D   3.3.3.3.3.3.3.3.",
"3.3.3.3.3.3.O 9 2.2.2.2.2.2.2.2.2.2.2.G   O   ; 2.2.2.2.2.2.2.2.2.2.2.}   3.3.3.3.3.3.3.3.",
"3.3.3.3.3.3.  H ^ ^ 2.2.2.2.2.2.2.2.N     3.  e 2.2.2.2.2.2.2.2.2.2.2.2.;   3.3.3.3.3.3.3.",
"3.3.3.3.3.  & } ; ; ..2.2.2.2.2.@.a     3.3.  l 2.2.2.2.2.2.2.2.2.2.2.2.d O 3.3.3.3.3.3.3.",
"3.3.3.3.3.  t &.7 7 &.2.2.2.2.W >   3.3.3.3.  I 2.2.2.2.2.2.2.2.2.2.2.2.N   3.3.3.3.3.3.3.",
"3.3.3.3.3.  6 2.2.2.T W 2.2.A   O 3.3.3.3.  ; &.2.2.2.2.2.2.2.2.2.2.2.2.L   3.3.3.3.3.3.3.",
"3.3.3.3.3.3.  ..2...    @.D     3.3.3.3.3.  A 2.2.2.2.2.2.2.2.2.2.2.2.2.'   3.3.3.3.3.3.3.",
"3.3.3.3.3.3.  e F m   1 ! O   3.3.3.3.3.O 9 &.2.2.2.2.2.2.2.2.2.2.2.2.2.o.  3.3.3.3.3.3.3.",
"3.3.3.3.3.3.3.O       e $ O 3.3.3.3.3.O ; ..2.2.2.2.2.2.2.2.2.2.2.2.2.2.;.    3.3.3.3.3.3.",
"3.3.3.3.3.3.3.3.3.3.O   O 3.3.3.3.3.O $ ' 2.2.2.2.2.2.2.2.2.2.2.2.2.2.2.2.;   3.3.3.3.3.3.",
"3.3.3.3.3.3.3.3.3.3.3.3.3.3.3.3.3.O & ' 2.2.2.2.2.2.2.2.2.2.2.2.2.2.2.2.2.6   3.3.3.3.3.3.",
"3.3.3.3.3.3.3.3.3.3.3.3.3.3.3.3.O O ) 2.2.2.2.2.2.2.2.2.2.2.2.2.2.2.2.2.2.9   3.3.3.3.3.3.",
"3.3.3.3.3.3.3.3.3.3.3.3.3.3.3.    Y 2.2.2.2.2.2.2.2.2.2.2.2.2.2.2.2.2.2.2.y   3.3.3.3.3.3.",
"3.3.3.3.3.3.3.3.3.3.3.3.3.3.3.  f 2.2.2.2.2.2.2.2.2.2.2.2.2.2.2.2.2.2.2.2.i   3.3.3.3.3.3.",
"3.3.3.3.3.3.3.3.3.3.3.3.3.3.3.  ' 2.2.2.2.2.2.2.2.2.2.2.2.2.2.2.2.2.2.2.2.i   3.3.3.3.3.3.",
"3.3.3.3.3.3.3.3.3.3.3.3.3.3.  ; 2.2.2.2.2.2.2.2.2.2.2.2.2.2.2.2.2.2.2.2.2.i   3.3.3.3.3.3.",
"3.3.3.3.3.3.3.3.3.3.3.3.3.3.  1 A C C A A C A C C A C A C A C A C A C A A 4   3.3.3.3.3.3.",
"3.3.3.3.3.3.3.3.3.3.3.3.3.3.                                                  3.3.3.3.3.3.",
"3.3.3.3.3.3.3.3.3.3.3.3.3.3.3.3.3.3.3.3.3.3.3.3.3.3.3.3.3.3.3.3.3.3.3.3.3.3.3.3.3.3.3.3.3.",
"3.3.3.3.3.3.3.3.3.3.3.3.3.3.3.3.3.3.3.3.3.3.3.3.3.3.3.3.3.3.3.3.3.3.3.3.3.3.3.3.3.3.3.3.3.",
"3.3.3.3.3.3.3.3.3.3.3.3.3.3.3.3.3.3.3.3.3.3.3.3.3.3.3.3.3.3.3.3.3.3.3.3.3.3.3.3.3.3.3.3.3.",
"3.3.3.3.3.3.3.3.3.3.3.3.3.3.3.3.3.3.3.3.3.3.3.3.3.3.3.3.3.3.3.3.3.3.3.3.3.3.3.3.3.3.3.3.3.",
"3.3.3.3.3.3.3.3.3.3.3.3.3.3.3.3.3.3.3.3.3.3.3.3.3.3.3.3.3.3.3.3.3.3.3.3.3.3.3.3.3.3.3.3.3."
};
