/* XPM */
static char *knightb[] = {
/* columns rows colors chars-per-pixel */
"45 45 80 1 ",
"  c black",
". c #010101",
"X c #020202",
"o c gray1",
"O c gray2",
"+ c #090909",
"@ c gray4",
"# c #0B0B0B",
"$ c #0C0C0C",
"% c #101010",
"& c gray7",
"* c #131313",
"= c #151515",
"- c gray10",
"; c #1D1D1D",
": c #1E1E1E",
"> c gray12",
", c #202020",
"< c #2C2C2C",
"1 c #313131",
"2 c #343434",
"3 c gray22",
"4 c gray24",
"5 c gray26",
"6 c gray29",
"7 c #4C4C4C",
"8 c #535353",
"9 c gray36",
"0 c gray37",
"q c gray39",
"w c gray40",
"e c #6C6C6C",
"r c #717171",
"t c gray46",
"y c #797979",
"u c #7C7C7C",
"i c #818181",
"p c #838383",
"a c #848484",
"s c #888888",
"d c #8B8B8B",
"f c #8E8E8E",
"g c gray57",
"h c #929292",
"j c gray58",
"k c #979797",
"l c #989898",
"z c gray61",
"x c #A2A2A2",
"c c gray65",
"v c #A9A9A9",
"b c #AAAAAA",
"n c #AEAEAE",
"m c #B1B1B1",
"M c #B2B2B2",
"N c gray71",
"B c #B6B6B6",
"V c #B9B9B9",
"C c gray74",
"Z c #C3C3C3",
"A c #CBCBCB",
"S c gray80",
"D c #D2D2D2",
"F c LightGray",
"G c gray84",
"H c #DDDDDD",
"J c #E1E1E1",
"K c #E2E2E2",
"L c #E9E9E9",
"P c #ECECEC",
"I c gray93",
"U c #EEEEEE",
"Y c gray95",
"T c gray96",
"R c gray97",
"E c #F9F9F9",
"W c #FDFDFD",
"Q c #FEFEFE",
"! c white",
"~ c None",
/* pixels */
"~~~~~~~~~~~~~~~~~~~~~~~~~~~~~~~~~~~~~~~~~~~~~",
"~~~~~~~~~~~~~~~~~~~~~~~~~~~~~~~~~~~~~~~~~~~~~",
"~~~~~~~~~~~~~~~~~~~~~~~~~~~~~~~~~~~~~~~~~~~~~",
"~~~~~~~~~~~~~~~~~~~~~~~~~~~~~~~~~~~~~~~~~~~~~",
"~~~~~~~~~~~~~~~~~~~~~~~~~~~~~~~~~~~~~~~~~~~~~",
"~~~~~~~~~~~~~~~~~~~~~~~~~~~~~~~~~~~~~~~~~~~~~",
"~~~~~~~~~~~~~~~~~~~~~~~~~~~~~~~~~~~~~~~~~~~~~",
"~~~~~~~~~~~~~  ~~~~~  ~~~~~~~~~~~~~~~~~~~~~~~",
"~~~~~~~~~~~~~   ~~~    ~~~~~~~~~~~~~~~~~~~~~~",
"~~~~~~~~~~~~~    ~     ~~~~~~~~~~~~~~~~~~~~~~",
"~~~~~~~~~~~~~           ,; ~~~~~~~~~~~~~~~~~~",
"~~~~~~~~~~~~~           M!Ha;~~~~~~~~~~~~~~~~",
"~~~~~~~~~~~~            5vT!TtO~~~~~~~~~~~~~~",
"~~~~~~~~~~~~  =;          %j!!B%~~~~~~~~~~~~~",
"~~~~~~~~~~~  ,UY$           3J!Z$~~~~~~~~~~~~",
"~~~~~~~~~~   B!UO            ;J!c ~~~~~~~~~~~",
"~~~~~~~~~~  $!!u              <T!0~~~~~~~~~~~",
"~~~~~~~~~   OxlO               e!L$~~~~~~~~~~",
"~~~~~~~~~                       A!i ~~~~~~~~~",
"~~~~~~~~                        6!U@~~~~~~~~~",
"~~~~~~~~                         F!0~~~~~~~~~",
"~~~~~~~                          r!V ~~~~~~~~",
"~~~~~~~                          -!E$~~~~~~~~",
"~~~~~~                            F!7~~~~~~~~",
"~~~~~~  44           ~            g!d ~~~~~~~",
"~~~~~  ;UU;         ~~            0!C ~~~~~~~",
"~~~~~  @GG@       ~~~~            1!U ~~~~~~~",
"~~~~~            ~~~~             @!!%~~~~~~~",
"~~~~~~          ~~~~~              U!2~~~~~~~",
"~~~~~~         ~~~~~               F!8~~~~~~~",
"~~~~~~~       ~~~~~                Z!w ~~~~~~",
"~~~~~~~~~~   ~~~~~                 B!y ~~~~~~",
"~~~~~~~~~~~~~~~~~                  v!d ~~~~~~",
"~~~~~~~~~~~~~~~~                   v!f ~~~~~~",
"~~~~~~~~~~~~~~~                    n!g ~~~~~~",
"~~~~~~~~~~~~~~~                    M!j ~~~~~~",
"~~~~~~~~~~~~~~~                    B!g ~~~~~~",
"~~~~~~~~~~~~~~                     V!d ~~~~~~",
"~~~~~~~~~~~~~~                     C!a ~~~~~~",
"~~~~~~~~~~~~~~                     zSq ~~~~~~",
"~~~~~~~~~~~~~~~~~~~~~~~~~~~~~~~~~~~~~~~~~~~~~",
"~~~~~~~~~~~~~~~~~~~~~~~~~~~~~~~~~~~~~~~~~~~~~",
"~~~~~~~~~~~~~~~~~~~~~~~~~~~~~~~~~~~~~~~~~~~~~",
"~~~~~~~~~~~~~~~~~~~~~~~~~~~~~~~~~~~~~~~~~~~~~",
"~~~~~~~~~~~~~~~~~~~~~~~~~~~~~~~~~~~~~~~~~~~~~"
};
