/* XPM */
static char *pawnw[] = {
/* columns rows colors chars-per-pixel */
"45 45 69 1 ",
"  c black",
". c #010101",
"X c #020202",
"o c gray1",
"O c #040404",
"+ c gray2",
"@ c gray3",
"# c #090909",
"$ c gray4",
"% c gray6",
"& c #101010",
"* c #111111",
"= c gray7",
"- c #131313",
"; c gray8",
": c #161616",
"> c #181818",
", c gray10",
"< c #1B1B1B",
"1 c gray11",
"2 c #1E1E1E",
"3 c gray12",
"4 c gray13",
"5 c #2C2C2C",
"6 c #2D2D2D",
"7 c gray18",
"8 c #2F2F2F",
"9 c gray19",
"0 c gray20",
"q c gray22",
"w c #494949",
"e c gray29",
"r c #4B4B4B",
"t c #4C4C4C",
"y c gray32",
"u c #535353",
"i c gray49",
"p c gray52",
"a c gray55",
"s c #8D8D8D",
"d c #9A9A9A",
"f c #9F9F9F",
"g c #A0A0A0",
"h c gray63",
"j c gray64",
"k c #AAAAAA",
"l c gray67",
"z c #AFAFAF",
"x c gray69",
"c c #B2B2B2",
"v c gray70",
"b c #BBBBBB",
"n c #C5C5C5",
"m c gray78",
"M c gray79",
"N c gray81",
"B c gray82",
"V c LightGray",
"C c gray84",
"Z c #DFDFDF",
"A c gray88",
"S c gray89",
"D c #E4E4E4",
"F c gray97",
"G c #F8F8F8",
"H c #FBFBFB",
"J c #FDFDFD",
"K c white",
"L c None",
/* pixels */
"LLLLLLLLLLLLLLLLLLLLLLLLLLLLLLLLLLLLLLLLLLLLL",
"LLLLLLLLLLLLLLLLLLLLLLLLLLLLLLLLLLLLLLLLLLLLL",
"LLLLLLLLLLLLLLLLLLLLLLLLLLLLLLLLLLLLLLLLLLLLL",
"LLLLLLLLLLLLLLLLLLLLLLLLLLLLLLLLLLLLLLLLLLLLL",
"LLLLLLLLLLLLLLLLLLLLLLLLLLLLLLLLLLLLLLLLLLLLL",
"LLLLLLLLLLLLLLLLLLLLLLLLLLLLLLLLLLLLLLLLLLLLL",
"LLLLLLLLLLLLLLLLLLLLLLLLLLLLLLLLLLLLLLLLLLLLL",
"LLLLLLLLLLLLLLLLLLLLLLLLLLLLLLLLLLLLLLLLLLLLL",
"LLLLLLLLLLLLLLLLLLLLL   LLLLLLLLLLLLLLLLLLLLL",
"LLLLLLLLLLLLLLLLLLL  ;q-  LLLLLLLLLLLLLLLLLLL",
"LLLLLLLLLLLLLLLLLLL iHKHp LLLLLLLLLLLLLLLLLLL",
"LLLLLLLLLLLLLLLLLL yKKKKKy LLLLLLLLLLLLLLLLLL",
"LLLLLLLLLLLLLLLLLL cKKKKKz LLLLLLLLLLLLLLLLLL",
"LLLLLLLLLLLLLLLLLL zKKKKKk LLLLLLLLLLLLLLLLLL",
"LLLLLLLLLLLLLLLLLL tKKKKKeOLLLLLLLLLLLLLLLLLL",
"LLLLLLLLLLLLLLLLLLO VKKKC OLLLLLLLLLLLLLLLLLL",
"LLLLLLLLLLLLLLLLLO4nKKKKKn4 LLLLLLLLLLLLLLLLL",
"LLLLLLLLLLLLLLLLO;DKKKKKKKD-OLLLLLLLLLLLLLLLL",
"LLLLLLLLLLLLLLLL fKKKKKKKKKf LLLLLLLLLLLLLLLL",
"LLLLLLLLLLLLLLL #HKKKKKKKKKF# LLLLLLLLLLLLLLL",
"LLLLLLLLLLLLLLL 6KKKKKKKKKKK6 LLLLLLLLLLLLLLL",
"LLLLLLLLLLLLLLL 6KKKKKKKKKKK6 LLLLLLLLLLLLLLL",
"LLLLLLLLLLLLLLL #HKKKKKKKKKF# LLLLLLLLLLLLLLL",
"LLLLLLLLLLLLLLLL jKKKKKKKKKh LLLLLLLLLLLLLLLL",
"LLLLLLLLLLLLLLLL ;SKKKKKKKS;OLLLLLLLLLLLLLLLL",
"LLLLLLLLLLLLLLLLL 2CKKKKKC< LLLLLLLLLLLLLLLLL",
"LLLLLLLLLLLLLLLLO 2dKKKKKd4  LLLLLLLLLLLLLLLL",
"LLLLLLLLLLLLLLLO-zKKKKKKKKKk-OLLLLLLLLLLLLLLL",
"LLLLLLLLLLLLLL 2ZKKKKKKKKKKKS2 LLLLLLLLLLLLLL",
"LLLLLLLLLLLLL -ZKKKKKKKKKKKKKZ-OLLLLLLLLLLLLL",
"LLLLLLLLLLLLL cKKKKKKKKKKKKKKKc LLLLLLLLLLLLL",
"LLLLLLLLLLLLOtKKKKKKKKKKKKKKKKKeOLLLLLLLLLLLL",
"LLLLLLLLLLLL VKKKKKKKKKKKKKKKKKN LLLLLLLLLLLL",
"LLLLLLLLLLL 0KKKKKKKKKKKKKKKKKKK9OLLLLLLLLLLL",
"LLLLLLLLLLL sKKKKKKKKKKKKKKKKKKKs LLLLLLLLLLL",
"LLLLLLLLLLL MKKKKKKKKKKKKKKKKKKKn LLLLLLLLLLL",
"LLLLLLLLLL OHKKKKKKKKKKKKKKKKKKKHO LLLLLLLLLL",
"LLLLLLLLLL <KKKKKKKKKKKKKKKKKKKKK; LLLLLLLLLL",
"LLLLLLLLLL 2bbbbbbbbbbbbbbbbbbbbb2 LLLLLLLLLL",
"LLLLLLLLLL                         LLLLLLLLLL",
"LLLLLLLLLLLLLLLLLLLLLLLLLLLLLLLLLLLLLLLLLLLLL",
"LLLLLLLLLLLLLLLLLLLLLLLLLLLLLLLLLLLLLLLLLLLLL",
"LLLLLLLLLLLLLLLLLLLLLLLLLLLLLLLLLLLLLLLLLLLLL",
"LLLLLLLLLLLLLLLLLLLLLLLLLLLLLLLLLLLLLLLLLLLLL",
"LLLLLLLLLLLLLLLLLLLLLLLLLLLLLLLLLLLLLLLLLLLLL"
};
