/* XPM */
static char *queenw[] = {
/* columns rows colors chars-per-pixel */
"45 45 130 2 ",
"   c black",
".  c #010101",
"X  c #020202",
"o  c gray1",
"O  c #040404",
"+  c gray2",
"@  c #060606",
"#  c #070707",
"$  c gray3",
"%  c #090909",
"&  c gray4",
"*  c #0C0C0C",
"=  c gray5",
"-  c #0E0E0E",
";  c gray6",
":  c #101010",
">  c #111111",
",  c gray7",
"<  c #131313",
"1  c gray9",
"2  c #181818",
"3  c #191919",
"4  c gray10",
"5  c #1B1B1B",
"6  c #1D1D1D",
"7  c #1E1E1E",
"8  c gray12",
"9  c #202020",
"0  c #222222",
"q  c gray14",
"w  c #252525",
"e  c gray15",
"r  c #272727",
"t  c #282828",
"y  c #2A2A2A",
"u  c gray17",
"i  c #2C2C2C",
"p  c #2D2D2D",
"a  c gray19",
"s  c #313131",
"d  c #323232",
"f  c #353535",
"g  c gray21",
"h  c #3C3C3C",
"j  c #3F3F3F",
"k  c gray25",
"l  c #414141",
"z  c #444444",
"x  c #484848",
"c  c #494949",
"v  c gray29",
"b  c gray31",
"n  c #505050",
"m  c gray32",
"M  c gray33",
"N  c #555555",
"B  c #565656",
"V  c #5A5A5A",
"C  c gray36",
"Z  c gray38",
"A  c #626262",
"S  c gray40",
"D  c #676767",
"F  c #686868",
"G  c gray43",
"H  c #717171",
"J  c #767676",
"K  c #777777",
"L  c gray47",
"P  c #797979",
"I  c #7B7B7B",
"U  c #7C7C7C",
"Y  c #7E7E7E",
"T  c gray50",
"R  c #848484",
"E  c gray52",
"W  c #868686",
"Q  c gray53",
"!  c #888888",
"~  c #898989",
"^  c gray54",
"/  c #8D8D8D",
"(  c #909090",
")  c gray57",
"_  c #939393",
"`  c gray58",
"'  c #959595",
"]  c gray59",
"[  c gray60",
"{  c gray62",
"}  c #A2A2A2",
"|  c gray64",
" . c gray65",
".. c #A9A9A9",
"X. c #AAAAAA",
"o. c #AEAEAE",
"O. c #AFAFAF",
"+. c gray70",
"@. c #B4B4B4",
"#. c #B6B6B6",
"$. c #BBBBBB",
"%. c #BCBCBC",
"&. c gray75",
"*. c #C1C1C1",
"=. c #C3C3C3",
"-. c gray77",
";. c #C8C8C8",
":. c gray79",
">. c #CDCDCD",
",. c #D0D0D0",
"<. c gray82",
"1. c #DDDDDD",
"2. c gray87",
"3. c gray90",
"4. c #E6E6E6",
"5. c #E7E7E7",
"6. c gray91",
"7. c #E9E9E9",
"8. c gray93",
"9. c #EEEEEE",
"0. c #F6F6F6",
"q. c gray97",
"w. c #F8F8F8",
"e. c #F9F9F9",
"r. c gray98",
"t. c #FBFBFB",
"y. c #FDFDFD",
"u. c #FEFEFE",
"i. c white",
"p. c None",
/* pixels */
"p.p.p.p.p.p.p.p.p.p.p.p.p.p.p.p.p.p.p.p.p.p.p.p.p.p.p.p.p.p.p.p.p.p.p.p.p.p.p.p.p.p.p.p.p.",
"p.p.p.p.p.p.p.p.p.p.p.p.p.p.p.p.p.p.p.p.p.p.p.p.p.p.p.p.p.p.p.p.p.p.p.p.p.p.p.p.p.p.p.p.p.",
"p.p.p.p.p.p.p.p.p.p.p.p.p.p.p.p.p.p.p.p.p.p.p.p.p.p.p.p.p.p.p.p.p.p.p.p.p.p.p.p.p.p.p.p.p.",
"p.p.p.p.p.p.p.p.p.p.p.p.p.p.p.p.p.p.p.p.p.p.p.p.p.p.p.p.p.p.p.p.p.p.p.p.p.p.p.p.p.p.p.p.p.",
"p.p.p.p.p.p.p.p.p.p.p.p.p.p.p.p.p.p.p.p.p.p.p.p.p.p.p.p.p.p.p.p.p.p.p.p.p.p.p.p.p.p.p.p.p.",
"p.p.p.p.p.p.p.p.p.p.p.p.p.p.p.p.p.p.p.p.p.      p.p.p.p.p.p.p.p.p.p.p.p.p.p.p.p.p.p.p.p.p.",
"p.p.p.p.p.p.p.p.p.p.p.p.p.    p.p.p.p.p.O O d   O p.p.p.p.p.    p.p.p.p.p.p.p.p.p.p.p.p.p.",
"p.p.p.p.p.p.p.p.p.p.p.p.  4 6   p.p.p.p.  ] i.]   p.p.p.p.  4 6   p.p.p.p.p.p.p.p.p.p.p.p.",
"p.p.p.p.p.p.p.p.p.p.p.  6 0.0.4   p.p.p.  ] i.]   p.p.p.  4 w.0.4   p.p.p.p.p.p.p.p.p.p.p.",
"p.p.p.p.p.    p.p.p.p.  4 0.0.4   p.p.p.  O p O   p.p.p.  6 0.0.4   p.p.p.p.    p.p.p.p.p.",
"p.p.p.p.  6 6   p.p.p.p.  6 4   p.p.p.p.p.      p.p.p.p.p.  4 4 O p.p.p.p.  6 4   p.p.p.p.",
"p.p.p.  4 w.0.4   p.p.p.p.    p.p.p.p.p.p.      p.p.p.p.p.      p.p.p.p.  6 0.0.4   p.p.p.",
"p.p.p.  4 0.0.4   p.p.p.p.p.    p.p.p.p.p.O     p.p.p.p.p.    p.p.p.p.p.  4 0.0.4   p.p.p.",
"p.p.p.p.  4 4   p.p.p.p.p.      p.p.p.p.p.  O O p.p.p.p.p.      p.p.p.p.p.  4 4   p.p.p.p.",
"p.p.p.p.p.      p.p.p.p.p.      p.p.p.p.p.  N   p.p.p.p.p.  O   p.p.p.p.p.      p.p.p.p.p.",
"p.p.p.p.p.p.O     p.p.p.p.  * k O p.p.p.p.  &.  p.p.p.p.O k %   p.p.p.p.    O p.p.p.p.p.p.",
"p.p.p.p.p.p.      p.p.p.p.  * |   p.p.p.  , i.,   p.p.p.  | *   p.p.p.p.      p.p.p.p.p.p.",
"p.p.p.p.p.p.p.  q O p.p.p.  1 0.*   p.p.O z i.x O p.p.  * w.1   p.p.p.O u   p.p.p.p.p.p.p.",
"p.p.p.p.p.p.p.  ] O   p.p.  4 i.F   p.p.  R i.Y   p.p.  F i.4   p.p.  O /   p.p.p.p.p.p.p.",
"p.p.p.p.p.p.p.  ! Q   p.p.  6 i.:.  p.p.  +.i.+.  p.p.  :.i.6   p.p.  Q !   p.p.p.p.p.p.p.",
"p.p.p.p.p.p.p.  N w.d O p.  q i.i.p   p.  7.i.7.  p.  u i.i.q   p.O p w.N O p.p.p.p.p.p.p.",
"p.p.p.p.p.p.p.  0 i.>.O     p i.i./     4 i.i.i.4     / i.i.u       >.i.0   p.p.p.p.p.p.p.",
"p.p.p.p.p.p.p.p.  8.i.L     d i.i.7.O   n i.i.i.n   O 7.i.i.d     L i.8.  p.p.p.p.p.p.p.p.",
"p.p.p.p.p.p.p.p.  &.i.w.q   f i.i.i.n   ! i.i.i.Q   n i.i.i.f   q 0.i.&.  p.p.p.p.p.p.p.p.",
"p.p.p.p.p.p.p.p.  ! i.=.Z   , p q 6 *   % % % % O   O , 6 q *   n X.8.!   p.p.p.p.p.p.p.p.",
"p.p.p.p.p.p.p.p.  O           , 6 u d z x N C N v z d u 6 ,           O   p.p.p.p.p.p.p.p.",
"p.p.p.p.p.p.p.p.  % L { =.2.w.i.i.i.i.i.i.i.i.i.i.i.i.i.i.i.w.2.=.{ L %   p.p.p.p.p.p.p.p.",
"p.p.p.p.p.p.p.p.p.  ! i.i.i.i.i.i.i.i.i.i.i.i.i.i.i.i.i.i.i.i.i.i.i.!   p.p.p.p.p.p.p.p.p.",
"p.p.p.p.p.p.p.p.p.O   | i.4.,.#.X.| [ [ ! ! ! ! ! [ [ | X.#.,.4.i.|     p.p.p.p.p.p.p.p.p.",
"p.p.p.p.p.p.p.p.p.p.  % *                                       * % O p.p.p.p.p.p.p.p.p.p.",
"p.p.p.p.p.p.p.p.p.p.p.  6 ] O.-.,.2.2.8.8.w.i.0.0.8.2.2.,.=.O.] 6   p.p.p.p.p.p.p.p.p.p.p.",
"p.p.p.p.p.p.p.p.p.p.p.    0.i.i.i.i.i.i.i.i.i.i.i.i.i.i.i.i.i.0.    p.p.p.p.p.p.p.p.p.p.p.",
"p.p.p.p.p.p.p.p.p.p.p.  % _ J V h u 0 4 , %   % , 4 0 u h V J _ O   p.p.p.p.p.p.p.p.p.p.p.",
"p.p.p.p.p.p.p.p.p.p.p.      % q k N C S G J L J G S V N k 0 %     O p.p.p.p.p.p.p.p.p.p.p.",
"p.p.p.p.p.p.p.p.p.p.  , +.7.i.i.i.i.i.i.i.i.i.i.i.i.i.i.i.i.i.7.#.,   p.p.p.p.p.p.p.p.p.p.",
"p.p.p.p.p.p.p.p.p.p.O x i.i.i.i.i.i.i.i.i.i.i.i.i.i.i.i.i.i.i.i.i.x   p.p.p.p.p.p.p.p.p.p.",
"p.p.p.p.p.p.p.p.p.p.  Y i.i.i.i.i.i.i.i.i.i.i.i.i.i.i.i.i.i.i.i.i.L   p.p.p.p.p.p.p.p.p.p.",
"p.p.p.p.p.p.p.p.p.p.  O.4.i.i.i.i.i.i.i.i.i.i.i.i.i.i.i.i.i.i.i.4.O.  p.p.p.p.p.p.p.p.p.p.",
"p.p.p.p.p.p.p.p.p.p.O       1 f n N Z S H J L J H S Z N v g 4 O     O p.p.p.p.p.p.p.p.p.p.",
"p.p.p.p.p.p.p.p.p.p.p.p.p.      O O O O O         O %   O       p.p.p.p.p.p.p.p.p.p.p.p.p.",
"p.p.p.p.p.p.p.p.p.p.p.p.p.p.p.p.p.p.p.p.p.p.p.p.p.p.p.p.p.p.p.p.p.p.p.p.p.p.p.p.p.p.p.p.p.",
"p.p.p.p.p.p.p.p.p.p.p.p.p.p.p.p.p.p.p.p.p.p.p.p.p.p.p.p.p.p.p.p.p.p.p.p.p.p.p.p.p.p.p.p.p.",
"p.p.p.p.p.p.p.p.p.p.p.p.p.p.p.p.p.p.p.p.p.p.p.p.p.p.p.p.p.p.p.p.p.p.p.p.p.p.p.p.p.p.p.p.p.",
"p.p.p.p.p.p.p.p.p.p.p.p.p.p.p.p.p.p.p.p.p.p.p.p.p.p.p.p.p.p.p.p.p.p.p.p.p.p.p.p.p.p.p.p.p.",
"p.p.p.p.p.p.p.p.p.p.p.p.p.p.p.p.p.p.p.p.p.p.p.p.p.p.p.p.p.p.p.p.p.p.p.p.p.p.p.p.p.p.p.p.p."
};
