/* XPM */
static char *queenb[] = {
/* columns rows colors chars-per-pixel */
"45 45 89 1 ",
"  c black",
". c #020202",
"X c gray1",
"o c #040404",
"O c #070707",
"+ c gray3",
"@ c #0B0B0B",
"# c gray5",
"$ c #101010",
"% c #181818",
"& c #191919",
"* c #1B1B1B",
"= c gray11",
"- c gray12",
"; c #222222",
": c #2C2C2C",
"> c #2D2D2D",
", c gray18",
"< c gray19",
"1 c #313131",
"2 c gray20",
"3 c #353535",
"4 c gray21",
"5 c #3A3A3A",
"6 c #3C3C3C",
"7 c gray24",
"8 c #414141",
"9 c #444444",
"0 c gray27",
"q c #484848",
"w c gray29",
"e c #4C4C4C",
"r c #515151",
"t c #535353",
"y c gray33",
"u c #555555",
"i c #585858",
"p c gray35",
"a c #5A5A5A",
"s c #656565",
"d c #6C6C6C",
"f c #6D6D6D",
"g c gray43",
"h c gray44",
"j c #717171",
"k c #777777",
"l c gray49",
"z c #7E7E7E",
"x c gray50",
"c c #808080",
"v c gray53",
"b c #888888",
"n c #898989",
"m c #8D8D8D",
"M c #8E8E8E",
"N c gray56",
"B c #909090",
"V c gray57",
"C c gray60",
"Z c #A0A0A0",
"A c #A4A4A4",
"S c #A5A5A5",
"D c gray66",
"F c #AAAAAA",
"G c #ACACAC",
"H c gray71",
"J c #B6B6B6",
"K c gray",
"L c #C3C3C3",
"P c gray77",
"I c gray80",
"U c #D8D8D8",
"Y c gray85",
"T c #DDDDDD",
"R c #DFDFDF",
"E c #E2E2E2",
"W c gray89",
"Q c #E7E7E7",
"! c gray92",
"~ c #EEEEEE",
"^ c #F1F1F1",
"/ c gray95",
"( c #F3F3F3",
") c gray96",
"_ c #F8F8F8",
"` c #FBFBFB",
"' c gray99",
"] c white",
"[ c None",
/* pixels */
"[[[[[[[[[[[[[[[[[[[[[[[[[[[[[[[[[[[[[[[[[[[[[",
"[[[[[[[[[[[[[[[[[[[[[[[[[[[[[[[[[[[[[[[[[[[[[",
"[[[[[[[[[[[[[[[[[[[[[[[[[[[[[[[[[[[[[[[[[[[[[",
"[[[[[[[[[[[[[[[[[[[[[[[[[[[[[[[[[[[[[[[[[[[[[",
"[[[[[[[[[[[[[[[[[[[[[[[[[[[[[[[[[[[[[[[[[[[[[",
"[[[[[[[[[[[[[[[[[[[[[   [[[[[[[[[[[[[[[[[[[[[",
"[[[[[[[[[[[[[  [[[[[     [[[[[  [[[[[[[[[[[[[",
"[[[[[[[[[[[[    [[[[     [[[[    [[[[[[[[[[[[",
"[[[[[[[[[[[      [[[     [[[      [[[[[[[[[[[",
"[[[[[  [[[[      [[[     [[[      [[[[  [[[[[",
"[[[[    [[[[    [[[[[   [[[[[    [[[[    [[[[",
"[[[      [[[[  [[[[[[   [[[[[   [[[[      [[[",
"[[[      [[[[[  [[[[[   [[[[[  [[[[[      [[[",
"[[[[    [[[[[   [[[[[   [[[[[   [[[[[    [[[[",
"[[[[[   [[[[[   [[[[[   [[[[[   [[[[[   [[[[[",
"[[[[[[   [[[[    [[[[   [[[[    [[[[   [[[[[[",
"[[[[[[   [[[[    [[[     [[[    [[[[   [[[[[[",
"[[[[[[[   [[[     [[     [[     [[[   [[[[[[[",
"[[[[[[[    [[     [[     [[     [[    [[[[[[[",
"[[[[[[[    [[     [[     [[     [[    [[[[[[[",
"[[[[[[[     [      [     [      [     [[[[[[[",
"[[[[[[[                               [[[[[[[",
"[[[[[[[[                             [[[[[[[[",
"[[[[[[[[                             [[[[[[[[",
"[[[[[[[[                             [[[[[[[[",
"[[[[[[[[                             [[[[[[[[",
"[[[[[[[[       o>rjVCFFFCVjr>o       [[[[[[[[",
"[[[[[[[[[   7bP)]]](RYIYR(]]])Lb7   [[[[[[[[[",
"[[[[[[[[[ g!]_LMi1$       $1iMP_]!g [[[[[[[[[",
"[[[[[[[[[[zZr#                 #uZz[[[[[[[[[[",
"[[[[[[[[[[[ 599999999999999999993 [[[[[[[[[[[",
"[[[[[[[[[[[e]]]]]]]]]]]]]]]]]]]]]e[[[[[[[[[[[",
"[[[[[[[[[[[ 599999999999999999993 [[[[[[[[[[[",
"[[[[[[[[[[[>+                   +>[[[[[[[[[[[",
"[[[[[[[[[[9])Hj7#           +7jH)]9[[[[[[[[[[",
"[[[[[[[[[[ 9VY]]_RKZMbkbVCKR]]]YM9 [[[[[[[[[[",
"[[[[[[[[[[>o  &ecALW~]]_~WLAze&  o>[[[[[[[[[[",
"[[[[[[[[[[](Fu=               =iF(][[[[[[[[[[",
"[[[[[[[[[[wCQ]]WGvsw3>;>3wsbGQ]]QCw[[[[[[[[[[",
"[[[[[[[[[[[  1gAY)]]]]]]]]])YAg1  [[[[[[[[[[[",
"[[[[[[[[[[[[[[[[  ;79uiu97;  [[[[[[[[[[[[[[[[",
"[[[[[[[[[[[[[[[[[[[[[[[[[[[[[[[[[[[[[[[[[[[[[",
"[[[[[[[[[[[[[[[[[[[[[[[[[[[[[[[[[[[[[[[[[[[[[",
"[[[[[[[[[[[[[[[[[[[[[[[[[[[[[[[[[[[[[[[[[[[[[",
"[[[[[[[[[[[[[[[[[[[[[[[[[[[[[[[[[[[[[[[[[[[[["
};
