/* XPM */
static char *rookb[] = {
/* columns rows colors chars-per-pixel */
"45 45 14 1 ",
"  c black",
". c #101010",
"X c gray9",
"o c #1B1B1B",
"O c gray20",
"+ c #464646",
"@ c #494949",
"# c #4B4B4B",
"$ c #4E4E4E",
"% c #555555",
"& c #5B5B5B",
"* c #AAAAAA",
"= c gray80",
"- c None",
/* pixels */
"---------------------------------------------",
"---------------------------------------------",
"---------------------------------------------",
"---------------------------------------------",
"---------------------------------------------",
"---------------------------------------------",
"---------------------------------------------",
"---------------------------------------------",
"---------------------------------------------",
"----------      ---       ---      ----------",
"----------      ---       ---      ----------",
"----------                         ----------",
"----------                         ----------",
"----------.OOOOOOOOOOOOOOOOOOOOOOO.----------",
"----------&=======================&----------",
"-----------                       -----------",
"------------ +*****************+ ------------",
"-------------o%%%%%%%%%%%%%%%%%o-------------",
"-------------                   -------------",
"-------------                   -------------",
"-------------                   -------------",
"-------------                   -------------",
"-------------                   -------------",
"-------------                   -------------",
"-------------                   -------------",
"-------------                   -------------",
"-------------                   -------------",
"-------------                   -------------",
"-------------                   -------------",
"-------------#*****************#-------------",
"-------------X%%%%%%%%%%%%%%%%%X-------------",
"------------#*******************#------------",
"----------- X%%%%%%%%%%%%%%%%%%%X -----------",
"-----------                       -----------",
"-----------                       -----------",
"-----------$*********************$-----------",
"--------   X%%%%%%%%%%%%%%%%%%%%%X   --------",
"--------                             --------",
"--------                             --------",
"--------                             --------",
"---------------------------------------------",
"---------------------------------------------",
"---------------------------------------------",
"---------------------------------------------",
"---------------------------------------------"
};
