/* XPM */
static char *rookw[] = {
/* columns rows colors chars-per-pixel */
"45 45 30 1 ",
"  c black",
". c #010101",
"X c #020202",
"o c gray1",
"O c #040404",
"+ c gray2",
"@ c #060606",
"# c gray9",
"$ c #1B1B1B",
"% c #222222",
"& c gray22",
"* c gray23",
"= c #3F3F3F",
"- c gray25",
"; c #555555",
": c #5A5A5A",
"> c gray49",
", c #838383",
"< c #888888",
"1 c #8B8B8B",
"2 c #A5A5A5",
"3 c gray67",
"4 c gray70",
"5 c gray87",
"6 c gray92",
"7 c #EEEEEE",
"8 c #F1F1F1",
"9 c gray99",
"0 c white",
"q c None",
/* pixels */
"qqqqqqqqqqqqqqqqqqqqqqqqqqqqqqqqqqqqqqqqqqqqq",
"qqqqqqqqqqqqqqqqqqqqqqqqqqqqqqqqqqqqqqqqqqqqq",
"qqqqqqqqqqqqqqqqqqqqqqqqqqqqqqqqqqqqqqqqqqqqq",
"qqqqqqqqqqqqqqqqqqqqqqqqqqqqqqqqqqqqqqqqqqqqq",
"qqqqqqqqqqqqqqqqqqqqqqqqqqqqqqqqqqqqqqqqqqqqq",
"qqqqqqqqqqqqqqqqqqqqqqqqqqqqqqqqqqqqqqqqqqqqq",
"qqqqqqqqqqqqqqqqqqqqqqqqqqqqqqqqqqqqqqqqqqqqq",
"qqqqqqqqqqqqqqqqqqqqqqqqqqqqqqqqqqqqqqqqqqqqq",
"qqqqqqqqqqqqqqqqqqqqqqqqqqqqqqqqqqqqqqqqqqqqq",
"qqqqqqqqqq      qqq       qqq      qqqqqqqqqq",
"qqqqqqqqqq *77* qqq *777* qqq *77* qqqqqqqqqq",
"qqqqqqqqqq -00:     :000:     :00- qqqqqqqqqq",
"qqqqqqqqqq -000777780000077778000- qqqqqqqqqq",
"qqqqqqqqqq $<<<<<<<<<<<<<<<<<<<<<$ qqqqqqqqqq",
"qqqqqqqqqq                         qqqqqqqqqq",
"qqqqqqqqqqq O2777777777777777773OOqqqqqqqqqqq",
"qqqqqqqqqqqq O><<<<<<<<<<<<<<<>OOqqqqqqqqqqqq",
"qqqqqqqqqqqqq ;444444444444444; qqqqqqqqqqqqq",
"qqqqqqqqqqqqq =000000000000000- qqqqqqqqqqqqq",
"qqqqqqqqqqqqq =000000000000000- qqqqqqqqqqqqq",
"qqqqqqqqqqqqq =000000000000000= qqqqqqqqqqqqq",
"qqqqqqqqqqqqq =000000000000000= qqqqqqqqqqqqq",
"qqqqqqqqqqqqq =000000000000000= qqqqqqqqqqqqq",
"qqqqqqqqqqqqq =000000000000000= qqqqqqqqqqqqq",
"qqqqqqqqqqqqq =000000000000000= qqqqqqqqqqqqq",
"qqqqqqqqqqqqq =000000000000000= qqqqqqqqqqqqq",
"qqqqqqqqqqqqq -000000000000000= qqqqqqqqqqqqq",
"qqqqqqqqqqqqq -000000000000000= qqqqqqqqqqqqq",
"qqqqqqqqqqqqq =000000000000000= qqqqqqqqqqqqq",
"qqqqqqqqqqqqq #***************$ qqqqqqqqqqqqq",
"qqqqqqqqqqqqq <000000000000000< qqqqqqqqqqqqq",
"qqqqqqqqqqqqOO,<<<<<<<<<<<<<<<<O qqqqqqqqqqqq",
"qqqqqqqqqqq                       qqqqqqqqqqq",
"qqqqqqqqqqq *5555555555555555555* qqqqqqqqqqq",
"qqqqqqqqqqq -0000000000000000000- qqqqqqqqqqq",
"qqqqqqqqqqq %<<<<<<<<<<<<<<<<<<<% qqqqqqqqqqq",
"qqqqqqqq                             qqqqqqqq",
"qqqqqqqq *7655555555555555555555567* qqqqqqqq",
"qqqqqqqq %<<<<<<<<<<<<<<<<<<<<<<<<<% qqqqqqqq",
"qqqqqqqq                             qqqqqqqq",
"qqqqqqqqqqqqqqqqqqqqqqqqqqqqqqqqqqqqqqqqqqqqq",
"qqqqqqqqqqqqqqqqqqqqqqqqqqqqqqqqqqqqqqqqqqqqq",
"qqqqqqqqqqqqqqqqqqqqqqqqqqqqqqqqqqqqqqqqqqqqq",
"qqqqqqqqqqqqqqqqqqqqqqqqqqqqqqqqqqqqqqqqqqqqq",
"qqqqqqqqqqqqqqqqqqqqqqqqqqqqqqqqqqqqqqqqqqqqq"
};
